<?xml version="1.0" encoding="UTF-8" standalone="no"?>
<svg
   xmlns:dc="http://purl.org/dc/elements/1.1/"
   xmlns:cc="http://creativecommons.org/ns#"
   xmlns:rdf="http://www.w3.org/1999/02/22-rdf-syntax-ns#"
   xmlns:svg="http://www.w3.org/2000/svg"
   xmlns="http://www.w3.org/2000/svg"
   viewBox="0 0 999.50665 200"
   height="200"
   width="999.50665"
   xml:space="preserve"
   id="svg2"
   version="1.1"><metadata
     id="metadata8"><rdf:RDF><cc:Work
         rdf:about=""><dc:format>image/svg+xml</dc:format><dc:type
           rdf:resource="http://purl.org/dc/dcmitype/StillImage" /></cc:Work></rdf:RDF></metadata><defs
     id="defs6" /><g
     transform="matrix(1.3333333,0,0,-1.3333333,0,200)"
     id="g10"><g
       transform="scale(0.1)"
       id="g12"><path
         id="path14"
         style="fill:#ce1a35;fill-opacity:1;fill-rule:nonzero;stroke:none"
         d="m 1022.37,935.547 -0.56,-0.418 C 970.801,895.242 895.566,875.035 798.117,875.035 H 583.211 v 379.915 c 146.445,0 265.039,0.03 265.039,0.03 82.77,0 147.168,-23.22 191.1,-68.59 32.04,-31.75 48.3,-71.74 48.3,-119.1 0,-50.99 -21.98,-95.329 -65.28,-131.743 m 188.72,-217.375 23.9,9.043 c 198.45,74.773 294.92,187.754 294.92,345.405 0,109.18 -43.69,198.17 -133.4,272.14 -95.09,77.09 -225.86,116.19 -388.6,116.19 0,0 -929.6561,0.07 -968.8475,-0.02 v -205.95 c 6.0508,-0.03 49.2813,-0.05 112.8045,-0.07 V 244.691 H 39.0625 V 39.0898 H 699.797 V 244.691 H 583.211 V 679.965 H 822.715 L 1096.71,244.691 H 942.598 V 39.0898 H 1658.01 V 244.691 H 1522.7 l -311.61,473.481" /><path
         id="path16"
         style="fill:#100f0d;fill-opacity:1;fill-rule:nonzero;stroke:none"
         d="m 997.895,966.02 -0.196,-0.11 C 953.789,931.527 886.617,914.094 798.125,914.094 H 622.277 v 301.786 h 225.985 c 71.734,0 126.609,-19.05 163.028,-56.67 l 0.59,-0.59 c 24.68,-24.46 36.72,-54.33 36.72,-91.33 0,-39.21 -16.58,-72.349 -50.705,-101.27 M 848.262,1254.95 H 583.199 V 875.035 h 214.926 c 97.43,0 172.684,20.207 223.685,60.094 l 0.57,0.418 c 43.3,36.414 65.27,80.753 65.27,131.743 0,47.36 -16.25,87.35 -48.29,119.1 -43.954,45.37 -108.333,68.59 -191.098,68.59" /><path
         id="path18"
         style="fill:#100f0d;fill-opacity:1;fill-rule:nonzero;stroke:none"
         d="M 1658,39.082 H 942.594 v 205.617 h 154.136 l -274,435.254 H 583.207 V 244.699 H 699.789 V 39.082 H 39.0586 V 244.699 H 151.863 V 1254.99 H 39.0586 v 205.95 H 1007.93 c 162.74,0 293.48,-39.1 388.57,-116.19 89.72,-73.94 133.41,-162.94 133.41,-272.12 0,-157.669 -96.47,-270.63 -294.93,-345.403 l -23.9,-9.043 311.64,-473.485 H 1658 Z m -114.24,244.699 -273.37,415.332 c 198.15,80.539 298.6,206.106 298.6,373.517 0,121.52 -48.3,220.39 -147.89,302.46 -102.21,82.9 -241.21,124.84 -413.17,124.84 H 0 V 1216.11 H 112.805 V 283.781 L 0,283.781 V 0 H 738.891 V 283.781 H 622.285 V 640.898 H 801.148 L 1025.95,283.781 H 903.535 V 0 h 793.545 v 283.781 h -153.32" /><path
         id="path20"
         style="fill:#100f0d;fill-opacity:1;fill-rule:nonzero;stroke:none"
         d="m 2019.93,0 h -39.07 v 1500 h 39.07 V 0" /><path
         id="path22"
         style="fill:#100f0d;fill-opacity:1;fill-rule:nonzero;stroke:none"
         d="M 5552.3,499.559 V 722.781 H 5408.28 V 499.559 H 5308.2 V 1000 h 100.08 V 805.582 H 5552.3 V 1000 h 102.25 V 499.559 H 5552.3" /><path
         id="path24"
         style="fill:#100f0d;fill-opacity:1;fill-rule:nonzero;stroke:none"
         d="M 5720.76,499.559 V 1000 h 285.15 l -12.97,-82.082 H 5823.01 V 801.98 h 141.85 V 719.898 H 5823.01 V 585.961 h 189.38 v -86.402 h -291.63" /><path
         id="path26"
         style="fill:#100f0d;fill-opacity:1;fill-rule:nonzero;stroke:none"
         d="m 6277.26,802.703 -20.16,88.574 c -2.89,-11.523 -15.13,-63.371 -23.77,-96.496 -9.36,-36.004 -15.84,-59.765 -26.64,-92.89 h 97.93 c -3.6,10.8 -19.44,66.25 -27.36,100.812 z m 87.13,-303.144 -35.29,118.804 H 6182.21 L 6146.92,499.559 H 6041.8 l 164.17,501.891 h 108.73 l 157.7,-501.891 h -108.01" /><path
         id="path28"
         style="fill:#100f0d;fill-opacity:1;fill-rule:nonzero;stroke:none"
         d="M 6767.59,499.559 H 6503.32 V 1000 h 102.97 V 583.082 h 179.3 l -18,-83.523" /><path
         id="path30"
         style="fill:#100f0d;fill-opacity:1;fill-rule:nonzero;stroke:none"
         d="M 7092.09,916.473 H 6972.56 V 499.559 H 6870.31 V 916.473 H 6747.9 V 1000 h 360.75 l -16.56,-83.527" /><path
         id="path32"
         style="fill:#100f0d;fill-opacity:1;fill-rule:nonzero;stroke:none"
         d="M 7394.05,499.559 V 722.781 H 7250.03 V 499.559 H 7149.94 V 1000 h 100.09 V 805.582 h 144.02 V 1000 H 7496.3 V 499.559 h -102.25" /><path
         id="path34"
         style="fill:#100f0d;fill-opacity:1;fill-rule:nonzero;stroke:none"
         d="m 2492.31,912.152 c -11.53,4.317 -32.4,7.2 -56.89,7.2 h -36 V 783.98 h 33.84 c 43.21,0 61.93,4.321 75.61,16.563 12.24,11.516 19.44,29.52 19.44,50.402 0,30.965 -12.24,52.567 -36,61.207 z m 52.56,-412.593 c -19.44,33.121 -27.36,46.796 -46.8,82.082 -49.69,90.007 -64.81,114.492 -82.81,122.41 -5.04,2.164 -9.36,3.601 -15.84,4.324 V 499.559 h -98.65 V 1000 h 186.5 c 88.56,0 146.89,-59.047 146.89,-146.895 0,-74.886 -49.68,-136.812 -111.61,-138.253 10.08,-7.918 14.4,-12.239 20.88,-20.879 25.92,-32.407 102.25,-162.735 120.25,-194.414 h -118.81" /><path
         id="path36"
         style="fill:#100f0d;fill-opacity:1;fill-rule:nonzero;stroke:none"
         d="m 3060.39,584.52 c -12.96,-39.598 -61.92,-94.321 -169.93,-94.321 -76.33,0 -132.49,23.039 -160.57,66.965 -16.56,25.918 -21.61,46.082 -21.61,94.324 V 1000 h 102.97 V 670.934 c 0,-30.969 2.88,-48.965 8.65,-59.766 11.51,-22.324 35.28,-34.566 68.4,-34.566 43.92,0 72.01,21.601 76.33,58.324 1.44,10.801 1.44,18.004 1.44,44.644 V 1000 h 102.25 V 663.008 c 0,-47.524 -0.72,-56.887 -7.93,-78.488" /><path
         id="path38"
         style="fill:#100f0d;fill-opacity:1;fill-rule:nonzero;stroke:none"
         d="m 3463.3,916.469 h -119.53 v -416.91 h -102.25 v 416.91 H 3119.11 V 1000 h 360.75 l -16.56,-83.531" /><path
         id="path40"
         style="fill:#100f0d;fill-opacity:1;fill-rule:nonzero;stroke:none"
         d="m 3704.49,493.789 c -74.89,0 -130.34,24.488 -170.66,76.332 -36.72,46.805 -53.28,100.09 -53.28,174.977 0,105.847 34.56,180.738 104.4,227.539 36.73,24.48 74.17,35.283 121.69,35.283 60.49,0 115.21,-19.443 159.14,-57.607 l -53.29,-62.641 c -32.4,26.641 -66.24,38.879 -104.41,38.879 -29.52,0 -54.72,-8.641 -72,-25.199 -33.85,-32.407 -42.48,-86.411 -42.48,-161.293 0,-71.289 12.24,-117.375 37.44,-142.575 18.72,-18.004 46.08,-28.086 78.48,-28.086 22.33,0 40.33,3.606 56.89,12.243 v 113.773 h -76.32 l -12.97,82.086 h 193.7 V 538.438 c -51.12,-30.239 -107.29,-44.649 -166.33,-44.649" /><path
         id="path42"
         style="fill:#100f0d;fill-opacity:1;fill-rule:nonzero;stroke:none"
         d="M 3944.94,499.559 V 1000 h 285.15 l -12.96,-82.09 H 4047.2 V 801.98 h 141.85 V 719.891 H 4047.2 v -133.93 h 189.37 v -86.402 h -291.63" /><path
         id="path44"
         style="fill:#100f0d;fill-opacity:1;fill-rule:nonzero;stroke:none"
         d="m 4491.43,912.152 c -11.52,4.317 -32.4,7.2 -56.88,7.2 h -36.01 V 783.98 h 33.85 c 43.2,0 61.92,4.321 75.61,16.563 12.24,11.516 19.43,29.52 19.43,50.402 0,30.965 -12.24,52.567 -36,61.207 z M 4544,499.559 c -19.45,33.121 -27.37,46.796 -46.8,82.082 -49.69,90.007 -64.81,114.492 -82.81,122.41 -5.05,2.164 -9.36,3.601 -15.85,4.324 V 499.559 H 4299.9 V 1000 h 186.49 c 88.57,0 146.89,-59.047 146.89,-146.895 0,-74.886 -49.68,-136.812 -111.6,-138.253 10.08,-7.918 14.4,-12.239 20.88,-20.879 25.92,-32.407 102.25,-162.735 120.25,-194.414 H 4544" /><path
         id="path46"
         style="fill:#100f0d;fill-opacity:1;fill-rule:nonzero;stroke:none"
         d="m 4849.81,488.75 c -56.88,0 -120.25,16.566 -170.65,45.367 l 37.44,78.488 c 46.81,-24.48 87.13,-40.324 137.53,-40.324 57.61,0 87.85,23.766 87.85,68.407 0,32.402 -20.88,52.566 -65.52,64.804 l -55.45,15.121 c -49.68,13.684 -80.65,33.121 -98.64,63.367 -13.69,22.325 -20.89,48.247 -20.89,76.329 0,91.445 73.45,154.811 179.3,154.811 61.2,0 123.13,-18.725 167.05,-50.405 l -47.52,-72.004 c -45.37,27.363 -79.21,38.164 -116.65,38.164 -41.04,0 -69.85,-23.766 -69.85,-57.609 0,-25.922 13.68,-38.883 55.45,-50.407 l 60.48,-16.554 c 82.09,-22.325 126.73,-74.887 126.73,-149.055 0,-101.527 -82.08,-168.5 -206.66,-168.5" /></g></g></svg>